HIERARCHY
ROOT Hips
{
   OFFSET 0.00000 0.00000 0.00000
   CHANNELS 6 Xposition Yposition Zposition Zrotation Xrotation Yrotation
   JOINT RightUpLeg
   {
      OFFSET -8.945800 -8.667070 0.101652
      CHANNELS 3 Zrotation Xrotation Yrotation
      JOINT RightLeg
      {
         OFFSET 0.000000 -44.422697 1.372700
         CHANNELS 3 Zrotation Xrotation Yrotation
         JOINT RightFoot
         {
            OFFSET 0.253549 -42.092399 -1.460590
            CHANNELS 3 Zrotation Xrotation Yrotation
            JOINT RightToes
            {
               OFFSET 0.040000 -4.415090 8.499099
               CHANNELS 3 Zrotation Xrotation Yrotation
               End Site
               {
                  OFFSET -0.080000 -0.137448 9.779790
               }
            }
         }
      }
   }
   JOINT Spine
   {
      OFFSET 0.000000 11.890501 0.000000
      CHANNELS 3 Zrotation Xrotation Yrotation
      JOINT Spine1
      {
         OFFSET 0.000000 25.657401 0.127663
         CHANNELS 3 Zrotation Xrotation Yrotation
         JOINT HEad
         {
            OFFSET 0.000000 8.734161 0.011341
            CHANNELS 3 Zrotation Xrotation Yrotation
            End Site
            {
               OFFSET -0.290000 12.774200 2.513950
            }
         }
         JOINT LeftShoulder1
         {
            OFFSET 8.990000 -0.362252 -0.220000
            CHANNELS 3 Zrotation Xrotation Yrotation
            JOINT LeftArm
            {
               OFFSET 10.282700 -0.003380 0.322123
               CHANNELS 3 Zrotation Xrotation Yrotation
               JOINT LeftForeArm
               {
                  OFFSET 32.766900 0.099144 -1.424340
                  CHANNELS 3 Zrotation Xrotation Yrotation
                  JOINT LeftHand
                  {
                     OFFSET 27.564301 0.085362 1.022160
                     CHANNELS 3 Zrotation Xrotation Yrotation
                     End Site
                     {
                        OFFSET 16.744301 -0.600000 1.502910
                     }
                  }
               }
            }
         }
         JOINT RightShoulder
         {
            OFFSET -8.990000 -0.362252 -0.220000
            CHANNELS 3 Zrotation Xrotation Yrotation
            JOINT RightArm
            {
               OFFSET -10.282700 -0.003380 0.322123
               CHANNELS 3 Zrotation Xrotation Yrotation
               JOINT RightForeArm
               {
                  OFFSET -32.897098 0.099144 -1.424340
                  CHANNELS 3 Zrotation Xrotation Yrotation
                  JOINT RightHand
                  {
                     OFFSET -27.492101 0.085362 1.022160
                     CHANNELS 3 Zrotation Xrotation Yrotation
                     End Site
                     {
                        OFFSET -16.631201 -0.600000 1.502910
                     }
                  }
               }
            }
         }
      }
   }
   JOINT LeftUpLeg
   {
      OFFSET 8.945800 -8.667070 0.101652
      CHANNELS 3 Zrotation Xrotation Yrotation
      JOINT LeftLeg
      {
         OFFSET 0.000000 -44.422697 1.372700
         CHANNELS 3 Zrotation Xrotation Yrotation
         JOINT LeftFoot
         {
            OFFSET -0.253549 -42.092399 -1.460590
            CHANNELS 3 Zrotation Xrotation Yrotation
            JOINT LeftToes
            {
               OFFSET -0.040000 -4.415090 8.499099
               CHANNELS 3 Zrotation Xrotation Yrotation
               End Site
               {
                  OFFSET 0.080000 -0.047448 9.779790
               }
            }
         }
      }
   }
}
MOTION
Frames: 12
Frame Time: 0.016667
8.81358 102.027 -43.6647 44.2355 46.4549 166.787 -72.1558 -20.6962 -27.6642 104.607 15.5722 -79.4508 -32.6898 17.3881 21.795 0.0462048 0.000533403 0.662642 22.7991 54.9955 -15.41 -0.0180729 -0.00458103 -0.00339165 25.4215 20.3236 -21.8009 1.98785e-016 0 1.59028e-015 -102.43 -4.3166 -63.6627 -71.0911 39.8509 -42.055 15.2092 26.5119 -15.5027 43.1057 1.16268 -6.8915 107.368 -46.7336 104.312 20.4623 29.0985 52.5697 16.421 29.9878 3.62096 42.9735 10.5891 -33.6937 -41.1614 27.2331 96.7895 5.83939 -2.65004 1.60582 -1.80355e-010 1.55988e-007 -4.83939e-009 
8.42401 101.703 -43.4456 42.5709 46.4046 168.444 -69.6092 -21.6391 -31.1842 108.459 24.4139 -78.2286 -30.346 19.6844 15.6076 0.0462048 0.000533403 0.662642 22.5418 54.1819 -15.6231 -0.0149751 0.00291904 -0.00446704 27.304 22.5233 -22.6743 2.28602e-015 0 1.59028e-015 -102.302 -3.89648 -63.7743 -70.0073 39.7713 -42.5499 15.0479 26.6744 -15.513 42.2425 1.45692 -7.13573 108.144 -46.7449 104.628 21.8331 30.4578 52.9949 16.4295 29.9841 3.30614 42.1016 9.18577 -34.3537 -43.6131 27.4293 99.4686 4.36614 -3.52772 0.60405 -1.80355e-010 1.55988e-007 -4.8394e-009 
8.02978 101.464 -43.2582 40.9544 46.2147 170.207 -65.7786 -23.3641 -35.5791 112.564 33.7221 -82.5108 -28.6314 19.1316 11.5641 0.0462048 0.000533403 0.662642 21.9701 52.7324 -15.5455 -0.0113758 0.0104791 -0.00612287 29.1421 24.6719 -23.9009 -5.86415e-015 -7.95139e-016 -0 -101.949 -3.50912 -63.5615 -69.0435 39.5916 -42.8973 14.867 26.8448 -15.3868 41.5996 2.06597 -7.81731 108.879 -46.703 105.056 23.3243 31.9577 53.2866 16.362 29.9117 3.02224 41.3038 7.91854 -34.9316 -45.641 27.3808 101.627 2.93824 -4.3716 -0.359504 -1.80353e-010 1.55988e-007 -4.8394e-009 
7.56897 101.153 -42.989 38.2267 44.0289 172.986 -60.7545 -25.9872 -41.7967 115.482 44.793 -88.4432 -25.3131 16.9827 8.02491 0.0462048 0.000533403 0.662642 19.9706 48.9173 -14.5174 -0.00800229 0.0178593 -0.00808042 30.8648 26.6913 -25.3847 6.75868e-015 -7.95139e-016 -0 -101.474 -3.33902 -63.1081 -68.4 39.4098 -42.9396 14.7936 27.0436 -15.2247 41.1421 2.96913 -8.85567 109.581 -46.549 105.563 24.9136 33.5759 53.4386 16.137 29.7227 2.67607 39.7223 5.10993 -34.2382 -47.1644 27.1442 103.25 1.68166 -5.11955 -1.1996 -1.80353e-010 1.55988e-007 -4.8394e-009 
7.13009 100.692 -42.8226 35.9098 41.9343 175.285 -54.3243 -28.8819 -47.9062 121.798 55.9768 -99.4499 -22.9379 14.1955 5.06167 0.0462048 0.000533403 0.662642 18.2706 44.9903 -13.6612 -0.0049516 0.0248795 -0.0100961 32.3635 28.5389 -27.0099 2.33572e-015 -7.95139e-016 7.95139e-016 -100.986 -3.57032 -62.4981 -68.2503 39.3233 -42.5364 14.8534 27.258 -15.0761 40.7894 4.14322 -10.1584 110.276 -46.2353 106.101 26.5772 35.2906 53.4514 15.743 29.4523 2.40312 38.273 2.60674 -33.5471 -48.443 26.8687 104.454 0.427001 -5.8302 -1.98745 -1.80352e-010 1.55988e-007 -4.8394e-009 
6.68119 100.191 -42.6491 33.8405 39.784 177.245 -47.0258 -31.922 -53.6395 134.468 65.9517 -118.023 -20.7678 11.0743 2.62381 0.0462048 0.000533403 0.662642 17.1559 41.26 -13.3321 0.0117671 0.0378297 -0.0119265 33.4337 30.1202 -28.4091 2.48481e-016 0 7.95139e-016 -100.73 -4.09461 -62.1641 -68.3573 39.2814 -41.9932 14.9706 27.4652 -14.9364 40.2115 5.25339 -11.3461 110.922 -45.7859 106.541 28.3132 37.0413 53.4385 15.2997 29.1527 2.11919 36.7739 0.200596 -32.8542 -49.3822 26.5264 105.409 -0.740287 -6.39737 -2.66395 -1.80353e-010 1.55988e-007 -4.8394e-009 
6.21946 99.7902 -42.4627 32.0452 37.5817 178.852 -39.347 -35.022 -58.6762 159.699 72.6348 -150.045 -18.4616 8.21845 0.70904 0.0462048 0.000533403 0.662642 16.5357 37.8551 -13.3909 0.0133188 0.0367598 -0.0133278 34.076 31.3783 -29.4747 -1.40392e-015 0 -0 -100.593 -4.98989 -62.2607 -69.0552 40.3386 -40.0876 16.4373 26.6538 -15.7126 39.4475 6.23444 -12.258 111.568 -45.2255 106.929 30.0946 38.8189 53.356 14.7797 28.7744 1.85585 35.2874 -2.10997 -32.175 -50.0131 26.115 106.099 -1.82913 -6.82803 -3.22091 -1.80352e-010 1.55988e-007 -4.8394e-009 
5.72741 99.6155 -42.2503 30.6322 34.8193 179.732 -31.5151 -38.6172 -62.9242 -165.168 73.2135 167.399 -15.7461 5.75138 -0.640104 0.0462048 0.000533403 0.662642 16.0946 34.3383 -13.193 0.0125591 0.0375299 -0.0137671 34.2742 32.3576 -30.1613 3.05631e-015 2.98177e-016 -0 -100.542 -6.38404 -62.6618 -70.5026 42.335 -36.88 18.9961 24.9078 -17.278 38.5118 7.09334 -12.863 112.209 -44.5478 107.244 31.9037 40.6286 53.2059 14.172 28.3179 1.64404 33.9546 -4.53823 -30.9806 -50.3468 25.6665 105.906 -2.82292 -7.19677 -3.63005 -1.80352e-010 1.55988e-007 -4.8394e-009 
5.31807 99.6047 -41.8837 28.869 31.7703 -179.731 -22.3392 -41.6156 -64.7263 -134.047 70.2512 128.392 -12.8128 2.83156 -1.67092 0.0462048 0.000533403 0.662642 15.1976 31.0651 -12.6071 0.001408 0.0389789 -0.0041765 33.774 33.2644 -30.0232 5.24916e-016 2.98177e-016 1.59028e-015 -100.839 -9.35648 -64.1398 -72.2131 44.6413 -33.5996 23.7248 27.1388 -18.3914 35.1683 10.8849 -11.6716 117.746 -43.051 109.623 34.1986 43.0226 53.1524 16.5926 24.9844 3.01617 32.2461 -6.70795 -29.793 -49.6797 24.9921 104.649 -3.74557 -7.15289 -3.70781 -1.80355e-010 1.55988e-007 -4.8394e-009 
4.96543 99.7446 -41.5121 26.7677 28.4754 -179.596 -12.6342 -43.6581 -64.0413 -114.114 64.7117 99.9121 -8.70555 -0.101004 -2.12015 0.0462048 0.000533403 0.662642 13.8618 28.031 -11.6686 -0.00146181 0.039659 -0.00458629 32.5555 34.1288 -29.0556 1.73937e-015 -2.48481e-016 -0 -101.701 -13.7079 -66.6093 -74.2671 47.2751 -30.2624 28.94 30.9255 -18.9427 31.9836 13.6739 -10.3871 121.265 -40.7669 109.354 36.9498 45.8864 52.9701 19.8334 20.7966 5.54021 30.2814 -8.6857 -28.6396 -48.4249 24.0581 102.626 -4.71205 -6.76041 -3.56678 -1.80355e-010 1.55988e-007 -4.8394e-009 
4.66389 99.9967 -41.1417 24.3558 24.9889 -179.918 -2.69961 -44.625 -61.2301 -101.855 58.4968 78.7115 -4.24106 -2.82681 -2.0818 0.0462048 0.000533403 0.662642 12.1289 25.2338 -10.4263 -0.00134351 0.0383191 -0.00568563 30.6183 34.9209 -27.2701 -1.963e-015 9.93923e-017 -0 -103.414 -19.1849 -70.0919 -76.7399 50.2344 -26.8595 33.5762 35.3214 -18.962 28.8415 15.5676 -9.05855 123.26 -37.8519 107.054 40.2085 49.0337 52.3165 23.0626 16.8285 8.88066 28.0993 -10.5199 -27.5304 -46.8197 22.8252 100.061 -5.77304 -6.05442 -3.26804 -1.80356e-010 1.55988e-007 -4.8394e-009 
4.4777 100.327 -40.8165 20.7305 21.1605 178.715 7.05536 -43.9297 -55.1565 -90.6781 54.5888 60.1726 -4.97608 -5.34272 -2.29013 0.0462048 0.000533403 0.662642 9.02112 23.386 -8.21635 -5.26743e-005 0.108791 -0.0192708 26.1898 35.1502 -22.7136 -2.48481e-016 3.97569e-016 -1.59028e-015 -108.511 -27.3202 -77.3462 -79.5874 54.1335 -23.4117 34.4334 40.2762 -17.9145 26.0582 14.7477 -7.32527 121.904 -33.5757 100.198 44.6795 52.2286 50.5501 25.1371 14.8964 13.5267 25.5331 -11.9832 -26.1877 -45.2687 21.4563 96.3579 -7.73897 -5.35605 -2.97021 -1.80353e-010 1.55988e-007 -4.8394e-009 
